# xmcd
#
# Track frame offsets:
#	150
#	15592
#	28620
#	40214
#	52132
#	66230
#	78320
#	90164
#	101320
#	112080
#	125941
#	137473
#	148930
#	160333
#	174001
#	186435
#	197984
#	211285
#	222822
#	237118
#
# Disc length: 3334 seconds
#
# Revision: 1
# Processed by: cddbd v1.5.2PL0 Copyright (c) Steve Scherf et al.
# Submitted via: audiograbber 1.82.02
#
DISCID=1c0d0414
DTITLE=Australian Bush BA Tribute Vol 1-5 - Tribute Series No 3
DYEAR=2003
DGENRE=Country
TTITLE0=Buddy Williams - Flying Doctor
TTITLE1=Shirley Thoms - Where The Golden Wattle Blooms
TTITLE2=Billy Starlight - Roses and Crinolines
TTITLE3=Maurie Lawson - Paradise Valley
TTITLE4=June Holms - Lullaby My Mother Sang To Me
TTITLE5=Ned Kelly - Araluen
TTITLE6=The Sundowners - Shearer's Jamboree
TTITLE7=Terry Hall - Bald Face Cattle
TTITLE8=Beau Chatwin - Where The White Face Cattle Roam
TTITLE9=Art Leonard - Face On The Bar Room Flor
TTITLE10=Buddy Williams - The Chicken Song
TTITLE11=Shirley Thoms - Yodelling In The Moonlight
TTITLE12=Billy Starlight - Will You Love Me When I'm Older
TTITLE13=Maurie Lawson - Riding Down The Shady Valley Trial
TTITLE14=June Holms - Song Of Queensland
TTITLE15=Ned Kelly - Don't Call For Me
TTITLE16=The Sundowners - Reflections
TTITLE17=Terry Hall - I Keep On Riding
TTITLE18=Beau Chatwin - Pub With No Bear
TTITLE19=Art Leonard - They Cut Down The Old Pine Tree
EXTD=
EXTT0=
EXTT1=
EXTT2=
EXTT3=
EXTT4=
EXTT5=
EXTT6=
EXTT7=
EXTT8=
EXTT9=
EXTT10=
EXTT11=
EXTT12=
EXTT13=
EXTT14=
EXTT15=
EXTT16=
EXTT17=
EXTT18=
EXTT19=
PLAYORDER=
